# xmcd
#
# Track frame offsets:
#	150
#	12925
#	37408
#	51621
#	64245
#	78337
#	91888
#	118673
#	131881
#	151829
#	170306
#	187993
#	201272
#	218865
#	241677
#	250708
#	263225
#	274408
#	286601
#	307963
#	333518
#
# Disc length: 4770 seconds
#
# Revision: 2
# Processed by: cddbd v1.5.2PL0 Copyright (c) Steve Scherf et al.
# Submitted via: audiograbber 1.83.01
#
DISCID=3112a015
DTITLE=Peter Green's Fleetwood - Peter Green's Fleetwood Mac 01
DYEAR=2007
DGENRE=Blues
TTITLE0=Peter Green's Fleetwood Mac  - Black Magic Woman
TTITLE1=Peter Green's Fleetwood Mac  - A Fool No More
TTITLE2=Peter Green's Fleetwood Mac  - Albatross (acoustique)
TTITLE3=Peter Green's Fleetwood Mac  - Albatross (pblq à la BBC)
TTITLE4=Peter Green's Fleetwood Mac  - Albatross
TTITLE5=Peter Green's Fleetwood Mac  - Allow Me One More Show
TTITLE6=Peter Green's Fleetwood Mac  - Green Manalishi (pblq) version
TTITLE7=Peter Green's Fleetwood Mac  - Coming Your Way
TTITLE8=Peter Green's Fleetwood Mac  - Dust My Broom
TTITLE9=Peter Green's Fleetwood Mac  - First Train Home (Mono)
TTITLE10=Peter Green's Fleetwood Mac  - Fleetwood Mac (Mono)
TTITLE11=Peter Green's Fleetwood Mac  - I Loved Another Woman
TTITLE12=Peter Green's Fleetwood Mac  - If You Be My Baby
TTITLE13=Peter Green's Fleetwood Mac  - Lazy Poker Blues
TTITLE14=Peter Green's Fleetwood Mac  - Long Grey Mare
TTITLE15=Peter Green's Fleetwood Mac  - Looking For Somebody
TTITLE16=Peter Green's Fleetwood Mac  - Love That Woman
TTITLE17=Peter Green's Fleetwood Mac  - Rambling Pony
TTITLE18=Peter Green's Fleetwood Mac  - Green Manalishi
TTITLE19=Peter Green's Fleetwood Mac  - Black Magic Woman (pblq)
TTITLE20=Chris Coco - Albatross (avec Peter Green)
EXTD=Compilation maison\nFait à montréal, Québec
EXTT0=
EXTT1=
EXTT2=
EXTT3=
EXTT4=
EXTT5=
EXTT6=
EXTT7=
EXTT8=
EXTT9=
EXTT10=
EXTT11=
EXTT12=
EXTT13=
EXTT14=
EXTT15=
EXTT16=
EXTT17=
EXTT18=
EXTT19=
EXTT20=De l'album du DJ Chris Coco - Next Wave ace Peter Grenn jouant lui même 
EXTT20=la guitare sur sa célèbre composition.
PLAYORDER=
